<svg width="15" height="15" viewBox="0 0 15 15" fill="none" xmlns="http://www.w3.org/2000/svg">
<path d="M11.0002 4.54999H4.0002V12.138C4.0002 12.211 4.0142 12.284 4.0412 12.357C4.07621 12.4277 4.12248 12.4922 4.1782 12.548C4.22537 12.6038 4.28642 12.6463 4.3552 12.671C4.4282 12.698 4.5052 12.712 4.5882 12.712H10.4122C10.4942 12.712 10.5722 12.698 10.6442 12.672C10.7135 12.6471 10.7749 12.6043 10.8222 12.548C10.8765 12.494 10.9185 12.4288 10.9452 12.357C10.9807 12.289 10.9995 12.2136 11.0002 12.137V4.54999ZM10.4122 3.38799H12.7502C12.9142 3.38799 13.0502 3.44799 13.1602 3.56599C13.2167 3.61527 13.2618 3.67617 13.2925 3.74452C13.3232 3.81287 13.3388 3.88705 13.3382 3.96199C13.3382 4.12599 13.2782 4.26699 13.1602 4.38599C13.1066 4.43983 13.0427 4.48215 12.9721 4.51035C12.9016 4.53856 12.8261 4.55204 12.7502 4.54999H12.1622V12.138C12.1622 12.375 12.1162 12.603 12.0252 12.822C11.9352 13.032 11.8112 13.213 11.6562 13.368C11.4988 13.5339 11.3079 13.6644 11.0962 13.751C10.8862 13.842 10.6582 13.888 10.4122 13.888H4.5882C4.3422 13.888 4.1142 13.838 3.9042 13.738C3.69737 13.6483 3.50784 13.5231 3.3442 13.368C3.18747 13.211 3.06192 13.0257 2.9742 12.822C2.8837 12.6053 2.83746 12.3728 2.8382 12.138V4.54999H2.2502C2.09288 4.55273 1.94073 4.49388 1.8262 4.38599C1.71831 4.27146 1.65946 4.1193 1.6622 3.96199C1.66106 3.88828 1.67502 3.81512 1.70323 3.74702C1.73143 3.67891 1.77328 3.61731 1.8262 3.56599C1.88097 3.50893 1.94685 3.4637 2.01977 3.43309C2.0927 3.40248 2.17112 3.38713 2.2502 3.38799H4.5882V2.79999C4.5882 2.56299 4.6332 2.33999 4.7252 2.12999C4.8152 1.91099 4.9392 1.72399 5.0942 1.56999C5.2492 1.40499 5.4312 1.27799 5.6412 1.18699C5.8592 1.09599 6.0912 1.04999 6.3382 1.04999H8.6622C8.9082 1.04999 9.1362 1.09599 9.3462 1.18699C9.5562 1.27699 9.7422 1.40499 9.9062 1.56999C10.0612 1.72399 10.1842 1.91099 10.2762 2.12999C10.3662 2.33999 10.4122 2.56299 10.4122 2.79999V3.38799ZM5.7502 3.38799H9.2502V2.79999C9.25156 2.72341 9.23258 2.64784 9.1952 2.58099C9.16846 2.50919 9.1265 2.44404 9.0722 2.38999C9.02503 2.33415 8.96398 2.29173 8.8952 2.26699C8.82296 2.23053 8.74312 2.21169 8.6622 2.21199H6.3382C6.25728 2.21169 6.17744 2.23053 6.1052 2.26699C6.03642 2.29173 5.97537 2.33415 5.9282 2.38999C5.87252 2.44584 5.82625 2.51034 5.7912 2.58099C5.76274 2.65043 5.74878 2.72496 5.7502 2.79999V3.38799ZM5.7502 6.88799C5.7502 6.72399 5.8052 6.58799 5.9142 6.47799C5.96897 6.42093 6.03485 6.3757 6.10777 6.34509C6.1807 6.31448 6.25912 6.29913 6.3382 6.29999C6.41314 6.29937 6.48732 6.31496 6.55567 6.34568C6.62402 6.3764 6.68492 6.42154 6.7342 6.47799C6.8532 6.58799 6.9122 6.72399 6.9122 6.88799V10.388C6.9122 10.543 6.8522 10.68 6.7342 10.798C6.68288 10.8509 6.62127 10.8928 6.55317 10.921C6.48506 10.9492 6.41191 10.9631 6.3382 10.962C6.18088 10.9647 6.02873 10.9059 5.9142 10.798C5.80825 10.6879 5.74942 10.5408 5.7502 10.388V6.88799ZM8.0882 6.88799C8.0882 6.72399 8.1432 6.58799 8.2522 6.47799C8.30484 6.42205 8.36837 6.37748 8.43888 6.34701C8.50939 6.31654 8.58539 6.30082 8.6622 6.30082C8.73901 6.30082 8.81501 6.31654 8.88552 6.34701C8.95603 6.37748 9.01956 6.42205 9.0722 6.47799C9.1912 6.58799 9.2502 6.72399 9.2502 6.88799V10.388C9.2502 10.543 9.1902 10.68 9.0722 10.798C9.01868 10.8519 8.9547 10.8942 8.88418 10.9224C8.81367 10.9506 8.73812 10.9641 8.6622 10.962C8.5094 10.9628 8.36231 10.9039 8.2522 10.798C8.14625 10.6879 8.08742 10.5408 8.0882 10.388V6.88799Z" fill="#666666"/>
</svg>
